PathFileType	4	(X/Y/Z)	D:/Ayumi_testdata/Ayumi_25_09_2024/25-09-2024/conventional_dl_80kg01/conventional_dl_80kg01.trc	
DataRate	CameraRate	NumFrames	NumMarkers	Units	OrigDataRate	OrigDataStartFrame	OrigNumFrames	
200.00	200.00	7	55	mm	200.00	2455	2620	
Frame#	Time	RSACR			LSACR			USACR			LBAR			RBAR			RHEE			RMT1			RMT5			RMT2			LHEE			LMT1			LMT5			LMT2			LMMAL			LLMAL			LTIB4			LTIB3			LTIB2			LTIB1			RMMAL			RLMAL			RTIB1			RTIB3			RTIB2			RTHI			RTHI4			RTHI3			RTHI2			LTHI1			LTHI4			LTHI3			LTHI2			FHD			LBHD			RBHD			C7			T10			CLAV			LSHO			RSHO			LRAD			LUL			LRFIN			RRAD			RUL			RUFIN			LMUPA			LDUPA			LUUPA			RMUPA			RUUPA			RDUPA			*52			*53			*54			
		X1	Y1	Z1	X2	Y2	Z2	X3	Y3	Z3	X4	Y4	Z4	X5	Y5	Z5	X6	Y6	Z6	X7	Y7	Z7	X8	Y8	Z8	X9	Y9	Z9	X10	Y10	Z10	X11	Y11	Z11	X12	Y12	Z12	X13	Y13	Z13	X14	Y14	Z14	X15	Y15	Z15	X16	Y16	Z16	X17	Y17	Z17	X18	Y18	Z18	X19	Y19	Z19	X20	Y20	Z20	X21	Y21	Z21	X22	Y22	Z22	X23	Y23	Z23	X24	Y24	Z24	X25	Y25	Z25	X26	Y26	Z26	X27	Y27	Z27	X28	Y28	Z28	X29	Y29	Z29	X30	Y30	Z30	X31	Y31	Z31	X32	Y32	Z32	X33	Y33	Z33	X34	Y34	Z34	X35	Y35	Z35	X36	Y36	Z36	X37	Y37	Z37	X38	Y38	Z38	X39	Y39	Z39	X40	Y40	Z40	X41	Y41	Z41	X42	Y42	Z42	X43	Y43	Z43	X44	Y44	Z44	X45	Y45	Z45	X46	Y46	Z46	X47	Y47	Z47	X48	Y48	Z48	X49	Y49	Z49	X50	Y50	Z50	X51	Y51	Z51	X52	Y52	Z52	X53	Y53	Z53	X54	Y54	Z54	X55	Y55	Z55	

2293	11.460	309.99448	971.13507	860.42828	312.15356	912.43115	863.07416	300.00519	941.46423	875.77942	220.61057	-190.75948	251.43475	188.00746	2030.10938	244.21835	271.45868	1369.55981	28.99324	121.86610	1497.70703	43.48551	194.87163	1537.66406	29.94115	154.11714	1523.20215	42.34633	305.79666	490.44745	39.29932	145.34766	381.78888	48.84455	212.51727	336.66116	31.81285	172.49628	353.18631	46.99557	245.00209	501.92804	65.15939	290.89645	436.27740	74.68687	305.23337	506.08939	203.59511	289.69254	515.90936	266.18195	326.48007	547.45142	250.35265	320.16592	558.27747	292.86160	222.28955	1371.87317	60.02812	272.80746	1424.22021	70.46890	277.37491	1329.03442	305.54535	286.07764	1349.47021	243.42155	315.74744	1305.02307	281.87729	269.33255	1118.36511	729.26947	276.00714	1181.83398	582.80475	228.82446	1196.13452	595.55499	260.42850	1166.25916	645.12994	283.20090	755.63702	731.72498	236.20132	665.57697	602.81055	283.17810	686.25568	597.68854	256.56512	696.08966	657.23462	109.03420	827.78748	1498.39966	218.90344	844.88586	1478.14099	223.03847	969.94006	1468.15039	230.61205	914.78839	1289.60083	284.80728	937.99994	915.63965	101.39288	915.55121	1227.01074	216.72078	753.81702	1256.16541	168.24388	1065.66321	1279.96558	211.69946	486.76614	796.86414	174.99031	502.95709	794.08527	144.12935	463.71277	722.83038	173.90987	1359.83398	834.65588	209.39612	1388.03076	848.47296	152.69165	1402.52429	766.22229	234.67975	626.16333	1046.35742	192.18095	643.43683	1066.63037	223.81403	663.50769	1115.98694	186.77586	1222.35889	1089.41760	175.59993	1185.34045	1138.74658	148.60153	1200.61414	1065.61243									 
2294	11.465	309.37241	971.22412	860.29041	311.56332	912.50525	862.92560	299.41553	941.55304	875.65912	220.54594	-190.76817	251.42027	187.81186	2030.26843	244.24051	271.44803	1369.55286	28.98403	121.87482	1497.76538	43.46783	194.91441	1537.68579	29.90964	154.11516	1523.23962	42.33665	305.77530	490.49765	39.30086	145.35043	381.78683	48.83381	212.51421	336.64935	31.80920	172.50612	353.18109	46.98387	244.96899	501.94626	65.14852	290.68134	436.45865	74.74595	305.19611	506.20270	203.55952	289.66003	516.02692	266.16913	326.44705	547.59064	250.31174	320.14151	558.41504	292.85098	222.26875	1371.86401	60.01583	272.82120	1424.21667	70.46732	277.58228	1328.85303	305.47528	286.24689	1349.30530	243.32315	315.84677	1304.73096	281.75455	268.57651	1118.37830	729.20923	275.60345	1181.93530	582.84998	228.30959	1196.09888	595.43512	259.73163	1166.34448	645.18451	282.50705	755.81293	731.71759	235.66246	665.67389	602.78748	282.72168	686.21765	597.79907	255.82263	696.42957	657.10071	110.12797	827.97797	1498.63342	219.93059	845.10565	1478.14539	224.07938	970.19305	1468.22437	231.12044	915.02240	1289.46875	284.33801	938.10730	915.46356	101.72453	915.79517	1227.34644	217.23370	754.26160	1256.46021	168.98404	1065.65137	1280.22778	211.63295	481.83627	800.67627	174.77319	497.70419	797.70160	143.93071	457.22833	727.24982	173.88245	1364.92493	838.55139	209.43730	1392.88818	852.72437	152.56552	1408.71484	770.88715	234.78903	624.56866	1048.20300	192.39932	641.97839	1068.42529	224.18753	662.80853	1117.38904	187.09450	1224.13696	1091.55542	176.18759	1186.50854	1140.41650	148.88866	1202.75708	1067.64136									 
2295	11.470	308.77209	971.31226	860.13013	310.94202	912.60724	862.75647	298.81302	941.63696	875.51410	220.49359	-190.77005	251.41594	187.59445	2030.31421	244.22478	271.43378	1369.55750	28.96608	121.90218	1497.77246	43.48957	194.89003	1537.73804	29.87514	154.13602	1523.28076	42.30502	305.73755	490.52972	39.29639	145.34779	381.76736	48.83521	212.50142	336.64777	31.80333	172.50308	353.16534	46.97910	244.93019	501.95044	65.10497	290.63025	436.62045	74.76264	305.15350	506.36316	203.51042	290.42374	515.63837	266.74258	326.41455	547.75409	250.26096	320.11942	558.59552	292.80106	222.25098	1371.88818	60.01492	272.83835	1424.18201	70.44608	277.81482	1328.67383	305.39963	286.40845	1349.11499	243.26276	315.94812	1304.47180	281.58673	267.91006	1118.42090	729.16736	275.12854	1181.89465	582.85095	227.83138	1196.09497	595.33154	259.21994	1166.26929	645.06989	281.87595	755.95496	731.72552	235.15251	665.79211	602.76068	282.12384	686.33398	597.88062	255.23453	696.23541	657.29456	111.15793	828.21912	1498.86169	220.94908	845.31372	1478.14075	224.84236	969.67780	1468.01892	231.62376	915.27789	1289.33826	283.85257	938.19647	915.28101	102.05387	916.03296	1227.65857	217.73369	754.73901	1256.74548	169.73869	1065.64099	1280.48682	211.59898	476.91589	804.55090	174.56627	492.38480	801.72253	143.65968	450.65253	731.83411	173.89574	1370.05615	842.55829	210.24908	1397.58228	857.00031	152.65408	1414.78442	775.54242	234.88249	623.01666	1050.09204	192.46262	640.50214	1070.31555	224.44209	662.02777	1118.84619	187.57210	1225.80676	1093.63818	176.77338	1187.65002	1142.08032	149.04787	1204.90649	1069.68860									 
2296	11.475	308.19476	971.38660	859.98615	310.37671	912.69727	862.58405	298.23004	941.71265	875.36316	220.42404	-190.77252	251.43034	187.50208	2030.09497	244.17609	271.43567	1369.55334	28.96638	121.92092	1497.81982	43.50695	194.90591	1537.78467	29.88116	154.14943	1523.32324	42.29631	305.71021	490.57278	39.28938	145.34210	381.76941	48.84581	212.49501	336.65073	31.81355	172.48735	353.16650	46.97301	244.88545	501.99384	65.10154	290.62854	436.64554	74.81179	305.13892	506.50427	203.50269	289.65842	516.34406	266.14139	326.41220	547.89825	250.22749	320.11856	558.79468	292.75720	222.23442	1371.91589	59.99985	272.85071	1424.16382	70.42899	278.38104	1328.62903	305.38831	286.52808	1348.87378	243.06966	316.03632	1304.22375	281.44797	267.20941	1118.41614	729.09937	274.65051	1181.74841	582.78082	227.39178	1196.06494	595.23218	258.74875	1166.20215	645.04095	281.21506	756.07690	731.70258	234.60242	665.89069	602.72070	281.56091	686.42603	597.90503	254.54744	696.32172	657.30414	112.21154	828.46442	1499.08167	221.92955	845.56635	1478.12744	225.81525	969.92047	1467.99866	232.10884	915.52789	1289.21790	283.36057	938.29858	915.09058	102.37113	916.31152	1227.97632	218.21304	755.20013	1257.06970	170.50121	1065.63293	1280.73938	211.71185	471.89093	808.59924	174.37564	487.12131	805.55890	143.66862	444.27765	736.35004	174.04861	1375.28528	846.69354	210.02866	1402.20911	861.13135	152.40797	1421.13647	780.47479	234.96387	621.42419	1051.96960	192.53610	638.90955	1072.25586	224.69844	661.29938	1120.27991	188.07097	1227.44543	1095.71216	177.35313	1188.76807	1143.75354	149.30484	1207.01440	1071.70715									 
2297	11.480	307.65836	971.44550	859.84546	309.80841	912.74780	862.41736	297.70303	941.77435	875.21771	220.36111	-190.76131	251.46527	187.32527	2030.09607	244.18324	271.40979	1369.55786	28.94397	121.93649	1497.84937	43.50619	194.89749	1537.85596	29.91726	154.17365	1523.36865	42.29475	305.67575	490.61230	39.29268	145.33994	381.75839	48.84659	212.48640	336.65189	31.81721	172.48619	353.16196	46.97028	244.87619	502.00275	65.07748	290.58902	436.68484	74.84942	305.16855	506.60211	203.49072	290.45480	515.91736	266.70911	326.38034	548.10022	250.17397	320.09937	559.01202	292.69382	222.31299	1371.91321	60.01527	272.87051	1424.13892	70.42969	278.52609	1328.43640	305.28577	286.45029	1348.65808	243.02557	316.09045	1303.97180	281.31094	266.60172	1118.45557	729.04425	274.25537	1181.66882	582.76312	227.00693	1196.00146	595.11200	258.24597	1166.20520	644.97040	280.52219	756.18347	731.68683	234.06419	666.00098	602.69116	280.95795	686.43024	597.97736	253.86961	696.39056	657.31677	113.19214	828.69580	1499.29175	222.90565	845.78723	1478.10461	226.76619	970.13544	1467.97998	232.57251	915.78333	1289.07703	282.93921	938.37683	914.91736	102.67313	916.55865	1228.29529	218.66451	755.67596	1257.34680	171.23056	1065.63672	1280.98401	211.56662	467.13116	812.58557	174.23192	481.85541	809.71753	143.50793	437.71844	741.14264	173.89194	1380.57483	850.86377	210.02875	1407.04321	865.49646	152.34848	1427.29102	785.43353	235.04829	619.89539	1053.88611	192.65971	637.40320	1074.18567	224.94290	660.60889	1121.72095	188.66705	1229.04395	1097.70642	177.93646	1189.90125	1145.41235	149.53229	1209.18665	1073.82227									 
2298	11.485	307.28528	971.61346	859.76715	309.28400	912.79791	862.23859	297.21265	941.83490	875.06708	220.28555	-190.77948	251.50713	187.15878	2030.08960	244.20407	271.57898	1369.34082	29.01124	121.94361	1497.89380	43.52305	194.90596	1537.87903	29.85793	154.17506	1523.41760	42.29330	305.65042	490.64865	39.28551	145.31834	381.74820	48.85440	212.48900	336.65775	31.80081	172.47447	353.16541	46.96883	244.83452	502.00562	65.06552	290.57819	436.66190	74.88033	305.18176	506.74570	203.46300	289.70441	516.62701	266.10483	326.36697	548.26489	250.10800	320.08621	559.20795	292.64499	222.29918	1371.93164	60.01459	272.87891	1424.11841	70.41977	278.58463	1328.28967	305.21368	286.68414	1348.57593	242.94717	316.11807	1303.73950	281.21487	266.01593	1118.44629	728.97888	273.87570	1181.64319	582.73669	226.61646	1195.93237	594.99585	257.62402	1166.27722	645.01605	279.87579	756.24829	731.64618	232.87404	666.25598	602.67670	280.50479	686.39404	598.07416	253.14030	696.72705	657.14453	114.17948	828.96246	1499.48877	223.82701	846.01862	1478.08130	227.67180	970.36298	1467.95728	233.05011	916.04156	1288.95288	282.53619	938.42670	914.74048	102.96661	916.83649	1228.59851	219.11469	756.16211	1257.61646	171.98457	1065.60962	1281.24341	211.56555	462.27396	816.72260	174.09006	476.62869	813.68121	143.51387	431.27731	745.94873	173.93410	1385.66980	855.12305	210.49547	1411.54346	869.78149	152.32956	1433.44861	790.48212	235.13681	618.25922	1055.86682	192.77574	636.13977	1075.99561	225.19942	659.88861	1123.17639	188.99379	1230.73230	1099.87720	178.55125	1191.02747	1147.07874	149.80641	1211.29944	1075.90662									 
2299	11.490	306.54770	971.57050	859.53741	308.75821	912.85486	862.07300	296.72458	941.89081	874.90485	220.20357	-190.78531	251.52461	186.99568	2030.05920	244.24083	271.42184	1369.51550	28.92521	121.94659	1497.92834	43.51222	194.80003	1537.82300	29.75340	154.22597	1523.46130	42.29050	305.62091	490.66934	39.29237	145.32028	381.74326	48.85081	212.49503	336.65085	31.81913	172.46570	353.15881	46.96323	244.79369	502.04410	65.05522	290.55255	436.70294	74.87067	305.14081	506.86865	203.41432	289.71310	516.76471	266.07950	326.39856	548.40985	250.01195	320.06638	559.38489	292.57840	222.27364	1371.92456	59.99596	272.89059	1424.10059	70.40683	278.42014	1327.91077	305.27753	286.69977	1348.46875	242.88873	316.12299	1303.57581	281.10703	265.43631	1118.44006	728.90472	273.67572	1181.67859	582.77637	226.30528	1195.84155	594.87646	257.32040	1166.12732	644.90735	279.22318	756.30634	731.61676	232.24475	666.34351	602.59009	279.86121	686.44043	598.10022	252.59526	696.49835	657.27832	115.13701	829.20605	1499.67236	224.75212	846.26471	1478.05347	228.58066	970.63782	1467.94312	233.51038	916.26160	1288.82922	282.12311	938.50208	914.55951	103.27306	917.13446	1228.86536	219.52486	756.61975	1257.88428	172.71414	1065.59998	1281.47253	211.61778	457.47852	820.90955	173.94614	471.37088	817.88269	143.62991	424.97833	750.75745	173.98329	1390.67578	859.45831	210.73357	1416.19995	874.34106	152.33708	1439.56873	795.64740	235.17270	616.82056	1057.80481	192.83841	634.43567	1078.05994	225.41241	659.15216	1124.67676	189.49286	1232.35461	1102.03979	179.13918	1192.12354	1148.76306	150.02167	1213.43042	1078.04150									 
